<?xml version="1.0" encoding="UTF-8" standalone="no"?>
<!-- Created with Inkscape (http://www.inkscape.org/) -->

<svg
   width="89.294464mm"
   height="22.945105mm"
   viewBox="0 0 89.294464 22.945105"
   version="1.1"
   id="svg1"
   inkscape:version="1.4 (e7c3feb100, 2024-10-09)"
   sodipodi:docname="dibujo1111.png"
   inkscape:dataloss="true"
   xmlns:inkscape="http://www.inkscape.org/namespaces/inkscape"
   xmlns:sodipodi="http://sodipodi.sourceforge.net/DTD/sodipodi-0.dtd"
   xmlns:xlink="http://www.w3.org/1999/xlink"
   xmlns="http://www.w3.org/2000/svg"
   xmlns:svg="http://www.w3.org/2000/svg">
  <sodipodi:namedview
     id="namedview1"
     pagecolor="#ffffff"
     bordercolor="#000000"
     borderopacity="0.25"
     inkscape:showpageshadow="2"
     inkscape:pageopacity="0.0"
     inkscape:pagecheckerboard="0"
     inkscape:deskcolor="#d1d1d1"
     inkscape:document-units="mm"
     inkscape:zoom="3.0966049"
     inkscape:cx="380.90103"
     inkscape:cy="423.20542"
     inkscape:window-width="1896"
     inkscape:window-height="1056"
     inkscape:window-x="0"
     inkscape:window-y="0"
     inkscape:window-maximized="1"
     inkscape:current-layer="g2">
    <inkscape:page
       x="0"
       y="0"
       width="89.294464"
       height="22.945105"
       id="page2"
       margin="0"
       bleed="0" />
  </sodipodi:namedview>
  <defs
     id="defs1">
    <clipPath
       clipPathUnits="userSpaceOnUse"
       id="clipPath5">
      <use
         x="0"
         y="0"
         xlink:href="#g4"
         id="use5" />
    </clipPath>
  </defs>
  <g
     inkscape:label="Capa 1"
     inkscape:groupmode="layer"
     id="layer1"
     transform="translate(-59.802633,-109.24308)">
    <g
       id="g2"
       style="paint-order:markers fill stroke">
      <g
         id="g5"
         clip-path="url(#clipPath5)"
         inkscape:export-filename="g5.png"
         inkscape:export-xdpi="96"
         inkscape:export-ydpi="96">
        <g
           inkscape:label="Clip"
           id="g4">
          <g
             id="g3">
            <path
               d="m 66.25622,124.21356 c 0.180622,0.46284 0.0508,0.89746 -0.389466,1.30386 -0.417688,0.38382 -0.99342,0.58702 -1.727197,0.6096 -0.722487,0.0113 -1.332086,-0.175 -1.828796,-0.5588 -0.790221,-0.59831 -1.236131,-1.39417 -1.337731,-2.3876 -0.06773,-0.62089 -0.107244,-1.30951 -0.118533,-2.06586 0,-0.12417 -0.01129,-0.22013 -0.03387,-0.28786 -0.01129,-0.079 -0.0508,-0.15241 -0.118533,-0.22014 -0.05645,-0.0677 -0.135469,-0.11853 -0.237067,-0.1524 -0.237066,-0.0903 -0.417688,-0.22013 -0.541865,-0.38946 -0.124178,-0.18063 -0.152401,-0.37818 -0.08467,-0.59267 0.05645,-0.16933 0.152402,-0.33302 0.287866,-0.49106 0.146755,-0.16933 0.299155,-0.28222 0.457199,-0.33867 0.225777,-0.1016 0.383822,-0.20884 0.474133,-0.32173 0.1016,-0.11289 0.158044,-0.27658 0.169333,-0.49107 0.01129,-0.18062 0.07337,-0.58137 0.186266,-1.20226 0.124177,-0.68862 0.423332,-1.02729 0.897465,-1.016 0.485421,0.0113 0.778932,0.36122 0.880532,1.04986 0.04515,0.38383 0.06773,0.8636 0.06773,1.43933 0,0.16933 0.03387,0.29351 0.1016,0.37254 0.07902,0.0677 0.203199,0.10724 0.372532,0.11853 0.49671,0.0226 0.897465,0.0678 1.202265,0.13547 0.304799,0.079 0.541865,0.24271 0.711198,0.49106 0.180622,0.23707 0.259644,0.50236 0.237066,0.79587 -0.02258,0.28222 -0.141113,0.53057 -0.355599,0.74506 -0.214489,0.2032 -0.479777,0.31609 -0.795865,0.33867 -0.05645,0.0113 -0.57009,0.0169 -1.54093,0.0169 0.146755,1.24178 0.231422,1.92476 0.253999,2.04893 0.07902,0.4064 0.355599,0.58702 0.829732,0.54187 0.05645,-0.0113 0.12418,-0.0226 0.203199,-0.0339 0.07902,-0.0113 0.146756,-0.0226 0.2032,-0.0339 0.05645,-0.0226 0.118535,-0.0395 0.186266,-0.0508 0.07902,-0.0113 0.146755,-0.0169 0.2032,-0.0169 0.59831,-0.0451 0.99342,0.16936 1.185331,0.64347 z m 6.688638,-5.01226 c 0.767643,0.11289 1.371597,0.4572 1.811863,1.03293 0.440266,0.57573 0.603955,1.24178 0.491066,1.99813 -0.169333,1.27564 -0.671688,2.31986 -1.507064,3.13266 -0.722487,0.69991 -1.597375,1.04422 -2.624662,1.03293 -0.146755,-0.0339 -0.366887,-0.079 -0.660398,-0.13546 -0.293511,-0.0565 -0.558799,-0.10727 -0.795865,-0.1524 -0.225777,-0.0565 -0.440266,-0.11856 -0.643466,-0.18627 -0.654754,-0.23707 -1.140175,-0.61524 -1.456264,-1.13453 -0.304799,-0.51929 -0.406399,-1.12889 -0.304799,-1.8288 0.237066,-1.59173 1.089375,-2.8335 2.556928,-3.72532 0.609599,-0.36125 1.264354,-0.44591 1.964263,-0.254 0.282222,0.079 0.671688,0.1524 1.168398,0.22013 z m -0.491066,3.26813 c 0.135467,-0.4064 0.03387,-0.72813 -0.304799,-0.9652 -0.338666,-0.23707 -0.587021,-0.37818 -0.745065,-0.42333 -0.158045,-0.0451 -0.3048,-0.0169 -0.440266,0.0847 -0.124178,0.0903 -0.299156,0.3048 -0.524933,0.64347 l -0.169333,0.254 c -0.327377,0.57573 -0.428976,0.98213 -0.304799,1.21919 0.124177,0.22578 0.513643,0.3556 1.168398,0.38947 0.169333,0.0113 0.316088,-3e-5 0.440266,-0.0339 0.124177,-0.0451 0.237066,-0.11287 0.338666,-0.2032 0.112889,-0.1016 0.208844,-0.22578 0.287866,-0.37253 0.07902,-0.15804 0.163688,-0.35559 0.253999,-0.59266 z m 11.5485,1.82879 c 0.09031,0.38382 0.08467,0.71684 -0.01693,0.99907 -0.1016,0.27093 -0.287866,0.46284 -0.558799,0.57573 -0.564443,0.22578 -1.061154,-0.0226 -1.490131,-0.74507 l -0.08467,-0.1016 c -0.09031,0.0677 -0.220133,0.16369 -0.389466,0.28787 l -0.457199,0.3048 c -0.124177,0.0903 -0.248355,0.16934 -0.372533,0.23707 -0.756354,0.39511 -1.501419,0.47413 -2.235195,0.23706 -0.722488,-0.24835 -1.24742,-0.762 -1.574797,-1.54093 -0.711199,-1.65946 -0.671688,-3.47697 0.118533,-5.45252 0.191911,-0.47413 0.507999,-0.67169 0.948265,-0.59267 0.428977,0.079 0.654754,0.39512 0.677332,0.94827 0.06773,1.33209 0.101599,2.00377 0.101599,2.01506 0.06773,0.57573 0.174978,1.10067 0.321733,1.5748 0.09031,0.29351 0.214489,0.45719 0.372533,0.49106 0.169333,0.0226 0.34431,-0.0903 0.524932,-0.33866 0.270933,-0.38382 0.485421,-0.84666 0.643465,-1.38853 0.1016,-0.33867 0.220133,-0.82409 0.3556,-1.45627 0.146755,-0.64346 0.253999,-1.09501 0.321732,-1.35466 0.09031,-0.31609 0.248356,-0.55315 0.474133,-0.7112 0.237066,-0.16933 0.507999,-0.23707 0.812798,-0.2032 0.304799,0.0451 0.54751,0.17496 0.728132,0.38947 0.191911,0.21449 0.299155,0.48542 0.321733,0.8128 0,0.14675 -0.0056,0.25964 -0.01693,0.33866 -0.1016,0.72249 -0.107243,1.44497 -0.01693,2.16746 0.1016,0.72249 0.265289,1.55787 0.491066,2.50613 z m 8.29731,-3.86079 c 0.04515,0.15805 0.0508,0.34431 0.01693,0.5588 -0.02258,0.2032 -0.08467,0.36124 -0.186266,0.47413 -0.07902,0.1016 -0.214488,0.17498 -0.406399,0.22013 -0.191911,0.0451 -0.383821,0.0621 -0.575732,0.0508 -0.180622,-0.0113 -0.513644,-0.14109 -0.999065,-0.38946 -0.225777,-0.11289 -0.423333,-0.14112 -0.592666,-0.0847 -0.169333,0.0451 -0.287866,0.17496 -0.355599,0.38947 -0.282221,0.77893 -0.513643,1.58044 -0.694265,2.40453 -0.03387,0.1016 -0.04516,0.29351 -0.03387,0.57573 0.02258,0.28222 0.02822,0.47413 0.01693,0.57573 -0.03387,0.4064 -0.191911,0.74507 -0.474133,1.016 -0.270933,0.27093 -0.59831,0.41769 -0.982131,0.44026 -0.395111,0.0226 -0.739421,-0.079 -1.032932,-0.30479 -0.29351,-0.23707 -0.491065,-0.5588 -0.592665,-0.9652 -0.05645,-0.24836 -0.08467,-0.45721 -0.08467,-0.62654 0.01129,-2.11101 0.02822,-4.12607 0.0508,-6.04518 0.01129,-0.31609 0.05644,-0.51929 0.135467,-0.6096 0.349955,-0.42898 0.620887,-0.65476 0.812798,-0.67733 0.282222,-0.0226 0.592666,0.14673 0.931332,0.508 0.05645,0.0677 0.107246,0.15239 0.152399,0.25399 0.04515,0.1016 0.09031,0.22578 0.135467,0.37254 0.05645,0.14675 0.09596,0.25964 0.118533,0.33866 1.083731,-0.58702 2.156174,-0.60959 3.217327,-0.0677 0.756354,0.38382 1.230486,0.9144 1.422397,1.59173 z m 23.164798,0.22013 c 0.48542,0.99342 0.65475,2.04329 0.508,3.1496 -0.13547,0.93697 -0.64911,1.69897 -1.54093,2.28599 -0.88053,0.58702 -1.8288,0.79586 -2.8448,0.62653 -0.0565,-0.0113 -0.11291,-0.0226 -0.16933,-0.0339 -0.0565,-0.0113 -0.12985,-0.0226 -0.22014,-0.0339 -0.0903,-0.0113 -0.16933,-0.0226 -0.23706,-0.0339 v 2.6924 c -0.0113,0.44027 -0.0564,0.79587 -0.13547,1.0668 -0.1016,0.3048 -0.45372,0.76002 -0.54186,0.62042 -0.15327,-0.24275 -0.39235,-0.61707 -0.52626,-0.71975 -0.0912,-0.0873 -0.5327,-0.39835 -0.69439,-0.47399 -0.135,-0.0911 -0.43663,-0.23856 -0.483,-0.27162 -0.0647,-0.0512 -0.35867,-0.21349 -0.35867,-0.23602 0.0677,-0.94827 0.0416,-1.05829 -0.003,-1.81464 -0.0451,-0.74506 -0.0508,-1.59172 -0.0169,-2.53999 0.0451,-0.94827 0.16931,-1.79493 0.37253,-2.54 0.0451,-0.19191 0.0903,-0.40639 0.13547,-0.64346 0.0451,-0.23707 0.079,-0.45156 0.1016,-0.64347 0.0339,-0.19191 0.0677,-0.40639 0.1016,-0.64346 0.0451,-0.24836 0.0903,-0.46849 0.13547,-0.6604 0.079,-0.32738 0.23142,-0.51929 0.45719,-0.57573 0.22578,-0.0565 0.46285,0.0338 0.7112,0.27093 0,0.0113 0.0508,0.0677 0.1524,0.16933 0.11289,-0.0451 0.28223,-0.11287 0.508,-0.2032 0.22578,-0.1016 0.42334,-0.18627 0.59267,-0.254 0.18062,-0.0677 0.3556,-0.11853 0.52493,-0.1524 0.76764,-0.21449 1.44497,-0.18062 2.032,0.1016 0.59831,0.27093 1.07808,0.76764 1.43933,1.49013 z m -3.58986,3.13266 c 0.76764,0.0677 1.28128,-0.0677 1.54093,-0.4064 0.25964,-0.34995 0.30479,-0.93133 0.13546,-1.74413 -0.1016,-0.49671 -0.41204,-0.67168 -0.93133,-0.52493 -0.59831,0.15805 -1.08937,0.58702 -1.4732,1.28693 -0.30479,0.54187 -0.41204,0.90311 -0.32173,1.08373 0.0903,0.16933 0.44027,0.27093 1.04987,0.3048 z m 12.39517,-3.35279 c 0.0451,0.15805 0.0508,0.34431 0.0169,0.5588 -0.0226,0.2032 -0.0847,0.36124 -0.18627,0.47413 -0.079,0.1016 -0.21449,0.17498 -0.4064,0.22013 -0.19191,0.0451 -0.38382,0.0621 -0.57573,0.0508 -0.18063,-0.0113 -0.51365,-0.14109 -0.99907,-0.38946 -0.22577,-0.11289 -0.42333,-0.14112 -0.59266,-0.0847 -0.16933,0.0451 -0.28787,0.17496 -0.3556,0.38947 -0.28222,0.77893 -0.51364,1.58044 -0.69427,2.40453 -0.0339,0.1016 -0.0452,0.29351 -0.0339,0.57573 0.0226,0.28222 0.0282,0.47413 0.0169,0.57573 -0.0339,0.4064 -0.19191,0.74507 -0.47413,1.016 -0.27093,0.27093 -0.59831,0.41769 -0.98213,0.44026 -0.39511,0.0226 -0.73943,-0.079 -1.03294,-0.30479 -0.29351,-0.23707 -0.49106,-0.5588 -0.59266,-0.9652 -0.0565,-0.24836 -0.0847,-0.45721 -0.0847,-0.62654 0.0113,-2.11101 0.0282,-4.12607 0.0508,-6.04518 0.0113,-0.31609 0.0564,-0.51929 0.13547,-0.6096 0.34995,-0.42898 0.62089,-0.65476 0.8128,-0.67733 0.28222,-0.0226 0.59266,0.14673 0.93133,0.508 0.0565,0.0677 0.10727,0.15239 0.1524,0.25399 0.0451,0.1016 0.0903,0.22578 0.13546,0.37254 0.0565,0.14675 0.096,0.25964 0.11854,0.33866 1.08373,-0.58702 2.15617,-0.60959 3.21732,-0.0677 0.75636,0.38382 1.23049,0.9144 1.4224,1.59173 z m 7.97559,-1.4732 c 0.31609,0.32738 0.53058,0.68298 0.64347,1.0668 0.12418,0.38382 0.14675,0.75071 0.0677,1.10067 -0.0677,0.34995 -0.23707,0.67733 -0.508,0.98213 -0.27093,0.29351 -0.61524,0.51364 -1.03293,0.6604 -0.28222,0.0903 -0.58137,0.16933 -0.89746,0.23706 -0.31609,0.0565 -0.68862,0.11856 -1.1176,0.18627 -0.42898,0.0565 -0.75636,0.10727 -0.98213,0.1524 0.56444,0.16933 0.86359,0.254 0.89746,0.254 0.0903,0.0226 0.34996,0.0621 0.77894,0.11853 0.42897,0.0565 0.75635,0.11856 0.98213,0.18627 0.4064,0.13547 0.64911,0.36689 0.72813,0.69426 0.0903,0.31609 -0.0169,0.62653 -0.32173,0.93133 -0.38383,0.4064 -0.8128,0.63218 -1.28693,0.67734 -0.75636,0.0677 -1.44498,0.006 -2.06587,-0.18627 -0.6096,-0.19191 -1.10631,-0.48542 -1.49013,-0.88053 -0.38382,-0.39511 -0.67169,-0.8636 -0.8636,-1.40547 -0.18062,-0.55315 -0.24271,-1.14017 -0.18626,-1.76106 0.1016,-1.15147 0.4064,-2.11102 0.9144,-2.87866 0.38382,-0.57573 0.86924,-0.98778 1.45626,-1.23613 0.58702,-0.25965 1.21355,-0.32174 1.8796,-0.18627 0.95955,0.16933 1.76106,0.59831 2.40452,1.28693 z m -1.49013,1.6256 0.18627,-0.0847 c -0.21449,-0.3048 -0.48542,-0.51929 -0.8128,-0.64346 -0.31609,-0.13547 -0.61524,-0.1637 -0.89746,-0.0847 -0.42898,0.12418 -0.71685,0.47978 -0.8636,1.0668 1.25306,-0.13547 2.04892,-0.22013 2.38759,-0.254 z m 9.34718,1.65946 c 0.508,0.47413 0.8128,0.99342 0.9144,1.55787 0.1016,0.55315 -0.006,1.0668 -0.32173,1.54093 -0.3048,0.47413 -0.78458,0.82973 -1.43933,1.0668 -0.74507,0.28222 -1.41676,0.4064 -2.01507,0.37253 -0.56444,-0.0339 -1.16275,-0.24836 -1.79493,-0.64347 -0.30479,-0.19191 -0.50799,-0.45719 -0.60959,-0.79586 -0.0903,-0.34996 -0.0677,-0.6604 0.0677,-0.93133 0.12417,-0.27093 0.32737,-0.46849 0.6096,-0.59267 0.29351,-0.12418 0.63217,-0.16369 1.016,-0.11853 0.0677,0.0113 0.59831,0.0621 1.59173,0.1524 0.0113,-0.0226 0.0226,-0.0565 0.0339,-0.1016 0.0113,-0.0565 0.0226,-0.096 0.0339,-0.11854 -0.0903,-0.0226 -0.22014,-0.0621 -0.38947,-0.11853 -0.16933,-0.0565 -0.32173,-0.10727 -0.4572,-0.1524 -0.13547,-0.0565 -0.25964,-0.11291 -0.37253,-0.16933 -0.0903,-0.0451 -0.254,-0.12416 -0.49106,-0.23707 -0.23707,-0.11289 -0.41769,-0.19755 -0.54187,-0.254 -0.12418,-0.0677 -0.27658,-0.1524 -0.4572,-0.254 -0.16933,-0.11289 -0.31609,-0.22577 -0.44026,-0.33866 -0.42898,-0.36125 -0.67734,-0.80151 -0.74507,-1.3208 -0.0677,-0.51929 0.0339,-1.02729 0.3048,-1.524 0.39511,-0.73377 1.03293,-1.28128 1.91346,-1.64253 0.88053,-0.37253 1.71591,-0.42898 2.50613,-0.16933 0.88053,0.27093 1.36595,0.80715 1.45626,1.60866 0.0451,0.37253 -0.0621,0.71684 -0.32173,1.03293 -0.2032,0.24836 -0.55315,0.24273 -1.04986,-0.0169 -0.4064,-0.22578 -0.77329,-0.31045 -1.10067,-0.254 -0.31609,0.0565 -0.62653,0.26531 -0.93133,0.62653 0.48542,0.23707 0.73942,0.36125 0.762,0.37254 0.14675,0.079 0.33866,0.18626 0.57573,0.32173 0.24835,0.13547 0.45155,0.254 0.6096,0.3556 0.16933,0.0903 0.3556,0.20319 0.5588,0.33866 0.2032,0.13547 0.37818,0.27093 0.52493,0.4064 z m 8.04333,0 c 0.508,0.47413 0.8128,0.99342 0.9144,1.55787 0.1016,0.55315 -0.006,1.0668 -0.32174,1.54093 -0.30479,0.47413 -0.78457,0.82973 -1.43933,1.0668 -0.74506,0.28222 -1.41675,0.4064 -2.01506,0.37253 -0.56444,-0.0339 -1.16275,-0.24836 -1.79493,-0.64347 -0.3048,-0.19191 -0.508,-0.45719 -0.6096,-0.79586 -0.0903,-0.34996 -0.0677,-0.6604 0.0677,-0.93133 0.12417,-0.27093 0.32737,-0.46849 0.60959,-0.59267 0.29351,-0.12418 0.63218,-0.16369 1.016,-0.11853 0.0677,0.0113 0.59831,0.0621 1.59173,0.1524 0.0113,-0.0226 0.0226,-0.0565 0.0339,-0.1016 0.0113,-0.0565 0.0226,-0.096 0.0339,-0.11854 -0.0903,-0.0226 -0.22014,-0.0621 -0.38947,-0.11853 -0.16933,-0.0565 -0.32173,-0.10727 -0.4572,-0.1524 -0.13547,-0.0565 -0.25964,-0.11291 -0.37253,-0.16933 -0.0903,-0.0451 -0.254,-0.12416 -0.49107,-0.23707 -0.23707,-0.11289 -0.41769,-0.19755 -0.54186,-0.254 -0.12418,-0.0677 -0.27658,-0.1524 -0.4572,-0.254 -0.16933,-0.11289 -0.31609,-0.22577 -0.44027,-0.33866 -0.42897,-0.36125 -0.67733,-0.80151 -0.74506,-1.3208 -0.0677,-0.51929 0.0339,-1.02729 0.3048,-1.524 0.39511,-0.73377 1.03293,-1.28128 1.91346,-1.64253 0.88053,-0.37253 1.71591,-0.42898 2.50613,-0.16933 0.88053,0.27093 1.36595,0.80715 1.45626,1.60866 0.0451,0.37253 -0.0621,0.71684 -0.32173,1.03293 -0.2032,0.24836 -0.55316,0.24273 -1.04987,-0.0169 -0.40639,-0.22578 -0.77328,-0.31045 -1.10066,-0.254 -0.31609,0.0565 -0.62653,0.26531 -0.93133,0.62653 0.48542,0.23707 0.73942,0.36125 0.762,0.37254 0.14675,0.079 0.33866,0.18626 0.57573,0.32173 0.24835,0.13547 0.45155,0.254 0.6096,0.3556 0.16933,0.0903 0.3556,0.20319 0.5588,0.33866 0.2032,0.13547 0.37818,0.27093 0.52493,0.4064 z"
               id="text1"
               style="font-size:16.9333px;font-family:'More Sugar';-inkscape-font-specification:'More Sugar';fill:none;stroke:#000000;stroke-width:0.5;paint-order:markers fill stroke"
               aria-label="tour   press"
               sodipodi:nodetypes="scccccccccccccccccsccccccccccccccsscscccscccccccssscsccccccssscccccccccccccccccccccccccsssccsccccccccccccccccscccsscccccccccscccccccccccsccccccccccccccccccsccccccccccccccccscccccsccccccccccccccscccccssccccccccccccccccccccccsscccscccccccccccscccccccccccccccccsscccscccccccccccscc" />
            <path
               d="m 88.418384,132.18818 -0.683693,-2.00462 7.25473,-6.24081 q -0.569743,-1.17251 -1.367383,-2.76108 -0.759658,-1.6264 -1.747212,-3.70667 -0.607727,-1.24816 -0.607727,-2.72327 0,-0.90775 0.417812,-2.64761 1.443349,0.11347 2.620818,1.21034 1.177469,1.05904 1.633264,2.68544 l 0.303863,1.1347 q 0.151932,0.64298 0.26588,1.13468 0.151932,0.45388 0.227898,0.75647 l 0.569742,1.05904 0.493778,0.90776 1.177469,-1.24816 q 2.127037,-2.26939 3.608377,-3.97143 1.51931,-1.73986 2.6588,-3.25279 1.17747,-1.55074 2.16502,-3.25278 0.94958,-0.11347 1.67125,0.30259 0.75966,0.41605 1.67125,1.24815 0.72166,0.68082 0.72166,1.77769 0,1.24816 -0.87359,2.19374 l -8.85002,9.68271 q -0.038,0.0378 -0.076,0.1513 -0.038,0.0756 -0.076,0.15129 -0.038,0.15129 -0.2279,0.45388 l 3.30452,2.04244 4.67189,2.68544 q 0.64571,0.41605 0.79764,0.83211 0.11395,0.22694 0.11395,0.41605 0,0.41606 -0.41781,0.64299 -0.41781,0.18912 -1.06352,0.11347 -2.24099,-0.30258 -4.33005,-1.24815 -2.08906,-0.94559 -4.2161,-2.42069 -0.531762,-0.34041 -0.911591,-0.56734 -0.379829,-0.22694 -0.683692,-0.22694 -0.227898,0 -0.607726,0.22694 -0.379829,0.22693 -0.873606,0.56734 -3.646356,2.57198 -7.748507,3.82013 -0.303862,0.0756 -0.53176,0.0756 z"
               id="text2"
               style="font-size:37.9029px;font-family:Mansalva;-inkscape-font-specification:Mansalva;fill:none;stroke:#000000;stroke-width:0.5;paint-order:markers fill stroke"
               aria-label="X" />
          </g>
        </g>
      </g>
    </g>
  </g>
</svg>
